<svg width="579" height="139" viewBox="0 0 579 139" fill="none" xmlns="http://www.w3.org/2000/svg">
<g clip-path="url(#clip0_1258_8368)">
<mask id="mask0_1258_8368" style="mask-type:luminance" maskUnits="userSpaceOnUse" x="1" y="2" width="135" height="136">
<path d="M1.84375 69.9795C1.84375 107.084 31.8846 137.188 68.9125 137.188C105.94 137.188 135.981 107.084 135.981 69.9795C135.981 32.8749 105.976 2.73633 68.9125 2.73633C31.8491 2.73633 1.84375 32.8394 1.84375 69.9795Z" fill="white"/>
</mask>
<g mask="url(#mask0_1258_8368)">
<path d="M135.981 2.73633H1.84375V137.152H135.981V2.73633Z" fill="url(#paint0_linear_1258_8368)"/>
</g>
<path d="M69.374 0C55.6483 0 42.2416 4.08719 30.8211 11.7285C19.4007 19.3698 10.5338 30.2096 5.28468 42.8977C6.07588e-05 55.6214 -1.3477 69.5889 1.34782 83.0588C4.00786 96.5288 10.6402 108.933 20.3229 118.635C30.0054 128.373 42.3835 134.984 55.8255 137.65C69.2677 140.315 83.2418 138.964 95.9036 133.705C108.565 128.444 119.418 119.524 127.008 108.115C134.634 96.7064 138.677 83.2365 138.677 69.4822C138.677 51.0721 131.335 33.3728 118.354 20.3648C105.373 7.35694 87.7461 0 69.374 0ZM101.649 55.5858H51.7469L51.0729 55.337L50.7537 54.6973C49.9735 45.8121 53.8039 32.1645 62.7062 28.2194C64.4441 27.935 66.2175 27.7929 67.9554 27.7929H71.1119C78.6666 27.7929 85.9372 30.4585 91.7185 35.3631C97.4996 40.2322 101.33 46.9849 102.607 54.4484V54.8749L102.394 55.2659L102.04 55.5503L101.614 55.6568L101.649 55.5858ZM103.068 62.7295V64.8619L102.82 65.4306L102.252 65.6794H63.4155L62.9191 65.5372L62.6353 65.1462C62.4225 64.471 62.2097 63.7601 61.9614 63.0138V62.6228L62.0679 62.2675L62.3516 62.0187L62.7062 61.9121H102.181L102.5 61.9832L102.784 62.1608L102.962 62.4452L103.033 62.765L103.068 62.7295ZM80.9364 75.0977C81.433 75.0977 81.8586 75.2753 82.2132 75.6308C82.5324 75.9507 82.7453 76.4483 82.7453 76.9103V77.1946C82.7098 77.9409 82.4616 78.6517 82.1068 79.2559C81.7166 79.8957 81.1847 80.3932 80.5463 80.7487L80.1916 81.2462V81.8504L80.5463 82.348L81.1138 82.5612C82.6033 82.6678 84.0576 82.2769 85.3344 81.5306C87.2141 80.3932 88.5618 78.5452 89.1294 76.4127C89.2358 76.0218 89.4485 75.6663 89.7677 75.4175C90.087 75.1688 90.4771 75.0266 90.8673 75.0266H94.5913L95.3361 75.1688L95.9746 75.6308L96.3292 76.3061L96.4002 77.0879L94.4494 90.8067V90.9489C93.953 94.1831 93.6337 97.5239 95.1588 99.372L107.927 116.716L108.246 117.356V118.066L108.033 118.742L107.537 119.275C103.103 122.26 98.4573 124.89 93.6337 127.165L92.6052 127.307L91.6475 126.881L77.8862 114.797C76.6094 113.659 75.7227 112.131 75.4035 110.461C75.0843 108.79 75.3325 107.049 76.1128 105.485L76.2902 105.13C77.9571 104.135 79.4114 102.784 80.4753 101.185C81.5749 99.5852 82.2842 97.7372 82.5324 95.7824L82.8162 93.9343C82.9226 93.1169 82.8872 92.2639 82.7098 91.4819C82.497 90.7 82.1423 89.9182 81.6458 89.2429C81.1493 88.5676 80.5463 87.999 79.837 87.608C79.1275 87.1815 78.3473 86.8972 77.5315 86.7905L76.3611 94.8938C76.1838 96.1379 75.6518 97.3107 74.8714 98.2702C74.0557 99.2298 72.9918 99.9761 71.8214 100.332L65.7919 102.322C64.7633 102.357 63.7348 102.038 62.9191 101.362C62.1032 100.687 61.6068 99.763 61.4294 98.7322L60.0107 88.7453C59.9398 87.9635 59.6915 87.217 59.3014 86.5418C58.9112 85.8666 58.4147 85.2623 57.8118 84.8003C57.8118 84.8003 54.5842 81.8504 52.3852 80.2511C51.7469 79.7891 51.2503 79.1848 50.8956 78.5096C50.541 77.7988 50.3636 77.0524 50.3636 76.2705V74.9555H81.1138L80.9364 75.0977ZM111.616 113.02L99.3439 96.3866C99.202 95.9601 99.1666 94.8229 99.5922 91.873L102.217 73.7827C102.288 73.3206 102.5 72.8941 102.855 72.6099C103.21 72.3254 103.671 72.1834 104.132 72.1834H105.87L106.898 71.9701L107.75 71.4015L108.317 70.5485L108.53 69.5178V59.7796C108.53 54.8749 107.572 50.0059 105.693 45.4566C103.813 40.9074 101.046 36.8203 97.606 33.3373C94.1302 29.8543 90.0161 27.1176 85.5116 25.234C80.9719 23.3503 76.1129 22.3906 71.2184 22.3906H68.0617C58.6275 22.3906 49.5833 25.9803 42.6672 32.4132C35.7865 38.8461 31.5659 47.6602 30.8921 57.0785C30.8921 57.4694 30.7502 57.8604 30.5729 58.2157L29.7925 59.0687L18.1239 67.2787L17.8047 67.6341V68.0961L18.0174 69.269C18.3011 70.6195 19.6134 72.1834 22.4509 72.1834H31.4241C31.9206 72.1834 32.3817 72.361 32.701 72.7164C33.0556 73.0719 33.2329 73.5339 33.2329 73.9958V88.2122C33.2329 88.9585 33.5167 89.6694 34.0486 90.2024C34.5452 90.7356 35.2546 91.0554 35.9994 91.091L38.2692 91.1976C38.9786 91.2332 39.6879 91.5175 40.22 91.9795C40.7875 92.4415 41.1776 93.0813 41.3194 93.7921L44.3696 106.765V106.942C44.5825 107.866 45.0081 108.755 45.6464 109.501C46.6396 110.781 47.9874 111.705 49.5479 112.167C51.0729 112.664 52.7399 112.664 54.265 112.167L57.6699 111.065H58.3437L58.8758 111.527L60.5782 114.335C62.0324 116.609 64.125 118.422 66.6076 119.524C67.1397 119.808 67.6008 120.163 68.0264 120.625C69.374 122.118 71.0765 126.028 72.4597 129.653L72.5662 130.506L72.247 131.323L71.6085 131.892L70.7928 132.105H69.4805C55.0098 132.105 40.9648 127.094 29.7572 117.924C18.5495 108.755 10.853 95.9601 7.94474 81.7438C5.07188 67.5275 7.16445 52.7425 13.9033 39.9122C20.642 27.082 31.6014 16.9529 44.9371 11.302C58.2728 5.65098 73.1337 4.76246 87.0368 8.84965C100.94 12.9013 112.999 21.6799 121.192 33.6571C129.385 45.6344 133.18 60.0639 131.938 74.529C130.697 88.9941 124.526 102.571 114.453 112.984L113.815 113.411L113.07 113.553L112.325 113.375L111.722 112.877H111.651L111.616 113.02Z" fill="#1A1D21"/>
<path d="M171.662 42.5422C171.662 42.0091 171.839 41.8313 172.372 41.8313H207.59C208.122 41.8313 208.3 42.0091 208.3 42.5422V51.1431C208.3 51.6761 208.122 51.8894 207.59 51.8894H184.076C183.721 51.8894 183.543 52.067 183.543 52.4226V63.9732C183.543 64.3287 183.721 64.5063 184.076 64.5063H203.583C204.114 64.5063 204.328 64.6841 204.328 65.2527V73.8536C204.328 74.3867 204.15 74.5645 203.583 74.5645H183.898C183.543 74.5645 183.366 74.7421 183.366 75.0975V95.8178C183.366 96.351 183.189 96.5641 182.658 96.5641H172.442C171.91 96.5641 171.698 96.3864 171.698 95.8178V42.4711L171.662 42.5422Z" fill="#1A1D21"/>
<path d="M219.968 41.8313H230.183C230.573 41.8313 230.891 42.1513 230.891 42.5422V95.8889C230.891 96.2799 230.573 96.6352 230.147 96.6352H219.933C219.542 96.6352 219.224 96.3154 219.224 95.9245V42.5778C219.224 42.1868 219.542 41.8669 219.933 41.8669L219.968 41.8313Z" fill="#1A1D21"/>
<path d="M244.228 42.5422C244.228 42.0091 244.405 41.8313 244.937 41.8313H280.157C280.689 41.8313 280.866 42.0091 280.866 42.5422V51.1431C280.866 51.6761 280.689 51.8894 280.157 51.8894H256.464C256.11 51.8894 255.933 52.067 255.933 52.4226V63.4402C255.933 63.7956 256.11 63.9732 256.464 63.9732H276.149C276.681 63.9732 276.893 64.151 276.893 64.6841V73.3205C276.893 73.8536 276.716 74.0313 276.149 74.0313H256.464C256.11 74.0313 255.933 74.2089 255.933 74.5645V85.9375C255.933 86.2929 256.11 86.4706 256.464 86.4706H280.157C280.689 86.4706 280.866 86.6482 280.866 87.1814V95.7823C280.866 96.3154 280.689 96.5286 280.157 96.5286H244.937C244.405 96.5286 244.228 96.351 244.228 95.7823V42.4355V42.5422Z" fill="#1A1D21"/>
<path d="M292.394 42.5422C292.394 42.0091 292.571 41.8313 293.102 41.8313H303.318C303.85 41.8313 304.027 42.0091 304.027 42.5422V85.8308C304.027 86.1862 304.205 86.364 304.558 86.364H328.641C329.173 86.364 329.386 86.5417 329.386 87.1103V96.1021C329.386 96.6353 329.209 96.8484 328.641 96.8484H292.89C292.358 96.8484 292.181 96.6708 292.181 96.1021V42.5778H292.358L292.394 42.5422Z" fill="#1A1D21"/>
<path d="M339.422 42.5422C339.422 42.0091 339.599 41.8313 340.131 41.8313H360.561C365.313 41.8313 369.499 42.9331 372.585 44.9589C375.883 46.9847 378.047 50.0768 379.5 54.3061C379.678 55.0169 379.855 55.7634 380.033 56.6875C380.21 57.6114 380.387 58.5355 380.565 59.6018C380.742 60.7035 380.742 62.1607 380.92 63.6534V75.0265C380.92 76.6969 380.742 77.9408 380.565 79.0781C380.387 80.1798 380.21 81.2816 380.033 81.9924C379.855 82.9165 379.678 83.6628 379.5 84.3737C378.224 88.6031 375.847 91.695 372.585 93.7209C369.286 95.7467 365.313 96.8484 360.561 96.8484H340.309C339.777 96.8484 339.599 96.6708 339.599 96.1021V42.5778H339.422V42.5422ZM351.268 85.6176C351.268 85.973 351.446 86.1506 351.801 86.1506H358.007C360.738 86.1506 362.938 85.7953 364.569 84.8712C366.2 83.9472 367.476 82.3122 368.045 80.1088C368.222 79.7533 368.399 79.1847 368.399 78.8294C368.577 78.2962 368.577 77.7275 368.754 76.8034C368.754 76.0927 368.932 74.9554 368.932 73.6759V64.6841C368.932 63.4046 368.932 62.4806 368.754 61.7698C368.754 61.0589 368.577 60.3126 368.399 59.7439C368.222 59.2108 368.222 58.8199 368.045 58.2868C367.299 56.0832 366.236 54.4128 364.569 53.5243C362.938 52.6002 360.738 52.2448 358.007 52.2448H351.801C351.446 52.2448 351.268 52.4226 351.268 52.778V85.6176Z" fill="#1A1D21"/>
<path d="M432.061 96.6355C431.529 96.6355 431.14 96.4578 430.962 95.9247L421.493 61.6278H421.315L411.632 95.9247C411.455 96.4578 411.101 96.6355 410.533 96.6355H402.517C401.986 96.6355 401.809 96.4578 401.595 95.9247L387.373 42.578C387.196 42.0448 387.551 41.8672 388.083 41.8672H398.474C399.006 41.8672 399.396 42.0448 399.396 42.578L407.235 77.2303H407.412L416.704 42.578C416.882 42.0448 417.237 41.8672 417.803 41.8672H424.72C425.253 41.8672 425.43 42.0448 425.642 42.578L435.325 77.2303H435.503L443.162 42.578C443.162 42.0448 443.517 41.8672 444.085 41.8672H454.477C455.009 41.8672 455.222 42.0448 455.222 42.578L441.176 95.9247C440.999 96.4578 440.644 96.6355 440.077 96.6355H432.061Z" fill="#1A1D21"/>
<path d="M464.906 41.8313H475.12C475.511 41.8313 475.829 42.1513 475.829 42.5422V95.8889C475.829 96.2799 475.511 96.6352 475.085 96.6352H464.87C464.48 96.6352 464.16 96.3154 464.16 95.9245V42.5778C464.16 42.1868 464.48 41.8669 464.87 41.8669L464.906 41.8313Z" fill="#1A1D21"/>
<path d="M519.596 96.6354C519.064 96.6354 518.674 96.4576 518.32 95.9245L508.85 75.7374H501.543C501.189 75.7374 501.011 75.9151 501.011 76.2704V95.889C501.011 96.4221 500.834 96.5999 500.302 96.5999H490.088C489.555 96.5999 489.378 96.4221 489.378 95.889V42.5424C489.378 42.0092 489.555 41.7959 490.088 41.7959H511.971C514.702 41.7959 517.255 42.1513 519.632 43.0754C522.007 43.9994 523.817 45.1013 525.449 46.5584C527.08 48.0156 528.356 49.8636 529.279 52.0672C530.201 54.093 530.556 56.4743 530.556 59.0332C530.556 62.5163 529.634 65.6438 528.001 68.3805C526.37 70.9394 523.817 72.9652 520.908 74.4224L531.655 96.0667V96.813L531.124 97.1684H519.632V96.6354H519.596ZM511.19 65.6438C513.39 65.6438 515.198 65.1107 516.652 63.7957C517.929 62.5163 518.638 60.8813 518.638 58.8555C518.638 56.8297 517.894 55.1948 516.652 53.9154C515.376 52.6359 513.531 52.0672 511.19 52.0672H501.507C501.154 52.0672 500.976 52.245 500.976 52.6003V65.0752C500.976 65.4306 501.154 65.6082 501.507 65.6082H511.19V65.6438Z" fill="#1A1D21"/>
<path d="M542.188 42.5422C542.188 42.0091 542.366 41.8313 542.898 41.8313H578.116C578.649 41.8313 578.826 42.0091 578.826 42.5422V51.1431C578.826 51.6761 578.649 51.8894 578.116 51.8894H554.602C554.247 51.8894 554.07 52.067 554.07 52.4226V63.4402C554.07 63.7956 554.247 63.9732 554.602 63.9732H574.287C574.818 63.9732 575.031 64.151 575.031 64.6841V73.3205C575.031 73.8536 574.854 74.0313 574.287 74.0313H554.602C554.247 74.0313 554.07 74.2089 554.07 74.5645V85.9375C554.07 86.2929 554.247 86.4706 554.602 86.4706H578.116C578.649 86.4706 578.826 86.6482 578.826 87.1814V95.7823C578.826 96.3154 578.649 96.5286 578.116 96.5286H542.898C542.366 96.5286 542.188 96.351 542.188 95.7823V42.4355V42.5422Z" fill="#1A1D21"/>
</g>
<defs>
<linearGradient id="paint0_linear_1258_8368" x1="68.5762" y1="137.547" x2="68.5762" y2="3.19836" gradientUnits="userSpaceOnUse">
<stop stop-color="#FBAC3F"/>
<stop offset="1" stop-color="#FDCD45"/>
</linearGradient>
<clipPath id="clip0_1258_8368">
<rect width="579" height="139" fill="white"/>
</clipPath>
</defs>
</svg>
