<svg width="101" height="32" viewBox="0 0 101 32" fill="none" xmlns="http://www.w3.org/2000/svg">
<path d="M33.7216 25V7.54545H36.8835V14.9347H44.9716V7.54545H48.142V25H44.9716V17.5852H36.8835V25H33.7216ZM57.1548 25.2557C55.8764 25.2557 54.7685 24.9744 53.831 24.4119C52.8935 23.8494 52.1662 23.0625 51.6491 22.0511C51.1378 21.0398 50.8821 19.858 50.8821 18.5057C50.8821 17.1534 51.1378 15.9687 51.6491 14.9517C52.1662 13.9347 52.8935 13.1449 53.831 12.5824C54.7685 12.0199 55.8764 11.7386 57.1548 11.7386C58.4332 11.7386 59.5412 12.0199 60.4787 12.5824C61.4162 13.1449 62.1406 13.9347 62.652 14.9517C63.169 15.9687 63.4276 17.1534 63.4276 18.5057C63.4276 19.858 63.169 21.0398 62.652 22.0511C62.1406 23.0625 61.4162 23.8494 60.4787 24.4119C59.5412 24.9744 58.4332 25.2557 57.1548 25.2557ZM57.1719 22.7841C57.8651 22.7841 58.4446 22.5937 58.9105 22.2131C59.3764 21.8267 59.723 21.3097 59.9503 20.6619C60.1832 20.0142 60.2997 19.2926 60.2997 18.4972C60.2997 17.696 60.1832 16.9716 59.9503 16.3239C59.723 15.6705 59.3764 15.1506 58.9105 14.7642C58.4446 14.3778 57.8651 14.1847 57.1719 14.1847C56.4616 14.1847 55.8707 14.3778 55.3991 14.7642C54.9332 15.1506 54.5838 15.6705 54.3509 16.3239C54.1236 16.9716 54.0099 17.696 54.0099 18.4972C54.0099 19.2926 54.1236 20.0142 54.3509 20.6619C54.5838 21.3097 54.9332 21.8267 55.3991 22.2131C55.8707 22.5937 56.4616 22.7841 57.1719 22.7841ZM69.1314 7.54545V25H66.0462V7.54545H69.1314ZM75.3892 7.54545V25H72.304V7.54545H75.3892ZM84.3572 25.2557C83.0447 25.2557 81.9112 24.983 80.9567 24.4375C80.0078 23.8864 79.2777 23.108 78.7663 22.1023C78.255 21.0909 77.9993 19.9006 77.9993 18.5312C77.9993 17.1847 78.255 16.0028 78.7663 14.9858C79.2834 13.9631 80.005 13.1676 80.9311 12.5994C81.8572 12.0256 82.9453 11.7386 84.1953 11.7386C85.0021 11.7386 85.7635 11.8693 86.4794 12.1307C87.201 12.3864 87.8374 12.7841 88.3885 13.3239C88.9453 13.8636 89.3828 14.5511 89.701 15.3864C90.0192 16.2159 90.1783 17.2045 90.1783 18.3523V19.2983H79.4482V17.2188H87.2209C87.2152 16.6278 87.0874 16.1023 86.8374 15.642C86.5874 15.1761 86.2379 14.8097 85.7891 14.5426C85.3459 14.2756 84.8288 14.142 84.2379 14.142C83.6072 14.142 83.0533 14.2955 82.576 14.6023C82.0987 14.9034 81.7266 15.3011 81.4595 15.7955C81.1982 16.2841 81.0646 16.821 81.0589 17.4062V19.2216C81.0589 19.983 81.1982 20.6364 81.4766 21.1818C81.755 21.7216 82.1442 22.1364 82.6442 22.4261C83.1442 22.7102 83.7294 22.8523 84.3999 22.8523C84.8487 22.8523 85.255 22.7898 85.6186 22.6648C85.9822 22.5341 86.2976 22.3438 86.5646 22.0938C86.8317 21.8438 87.0334 21.5341 87.1697 21.1648L90.0504 21.4886C89.8686 22.25 89.522 22.9148 89.0107 23.483C88.505 24.0455 87.8572 24.483 87.0675 24.7955C86.2777 25.1023 85.3743 25.2557 84.3572 25.2557ZM92.7884 25V11.9091H95.7798V14.0909H95.9162C96.1548 13.3352 96.5639 12.7528 97.1435 12.3438C97.7287 11.929 98.3963 11.7216 99.1463 11.7216C99.3168 11.7216 99.5071 11.7301 99.7173 11.7472C99.9332 11.7585 100.112 11.7784 100.254 11.8068V14.6449C100.124 14.5994 99.9162 14.5597 99.6321 14.5256C99.3537 14.4858 99.0838 14.4659 98.8224 14.4659C98.2599 14.4659 97.7543 14.5881 97.3054 14.8324C96.8622 15.071 96.5128 15.4034 96.2571 15.8295C96.0014 16.2557 95.8736 16.7472 95.8736 17.304V25H92.7884Z" fill="#66605A"/>
<path d="M8 7.8C8 7.91046 7.91046 8 7.8 8H4.84721C4.63617 8 4.56901 8.2845 4.75777 8.37889L11.9106 11.9553C11.9669 11.9834 12.0331 11.9834 12.0894 11.9553L19.2422 8.37889C19.431 8.2845 19.3638 8 19.1528 8H16.2C16.0895 8 16 7.91046 16 7.8V3.2C16 3.08954 16.0895 3 16.2 3H23.8C23.9105 3 24 3.08954 24 3.2V26.8C24 26.9105 23.9105 27 23.8 27H16.2C16.0895 27 16 26.9105 16 26.8V22.2C16 22.0895 16.0895 22 16.2 22H19.1528C19.3638 22 19.431 21.7155 19.2422 21.6211L12.0894 18.0447C12.0331 18.0166 11.9669 18.0166 11.9106 18.0447L4.75777 21.6211C4.56901 21.7155 4.63617 22 4.84721 22H7.8C7.91046 22 8 22.0895 8 22.2V26.8C8 26.9105 7.91046 27 7.8 27H0.2C0.0895429 27 0 26.9105 0 26.8V3.2C0 3.08954 0.0895431 3 0.2 3H7.8C7.91046 3 8 3.08954 8 3.2V7.8Z" fill="#66605A"/>
</svg>
