<svg width="166" height="40" viewBox="0 0 166 40" fill="none" xmlns="http://www.w3.org/2000/svg">
<path d="M153.656 33.5964V12.8995H158.602V16.349H158.828C159.222 15.1542 159.899 14.2334 160.857 13.5867C161.824 12.9309 162.928 12.603 164.168 12.603C164.45 12.603 164.765 12.6165 165.112 12.6435C165.469 12.6614 165.765 12.6929 166 12.7378V17.2248C165.784 17.1529 165.441 17.0901 164.971 17.0362C164.511 16.9733 164.065 16.9418 163.633 16.9418C162.703 16.9418 161.867 17.135 161.124 17.5212C160.392 17.8985 159.814 18.424 159.391 19.0978C158.969 19.7715 158.757 20.5485 158.757 21.4289V33.5964H153.656Z" fill="url(#paint0_linear_308_11961)"/>
<path d="M139.717 34C137.547 34 135.673 33.5688 134.095 32.7065C132.526 31.8351 131.319 30.6044 130.473 29.0144C129.628 27.4155 129.205 25.5335 129.205 23.3686C129.205 21.2396 129.628 19.3712 130.473 17.7632C131.328 16.1463 132.521 14.8886 134.052 13.9903C135.584 13.083 137.382 12.6294 139.449 12.6294C140.783 12.6294 142.042 12.836 143.225 13.2492C144.419 13.6535 145.471 14.2823 146.382 15.1357C147.302 15.989 148.026 17.076 148.552 18.3965C149.078 19.708 149.341 21.2711 149.341 23.0856V24.5813H131.601V21.2935H144.451C144.442 20.3593 144.231 19.5284 143.817 18.8007C143.404 18.0641 142.826 17.4847 142.084 17.0625C141.351 16.6403 140.497 16.4292 139.52 16.4292C138.477 16.4292 137.561 16.6718 136.772 17.1568C135.983 17.6329 135.367 18.2618 134.926 19.0433C134.494 19.8158 134.273 20.6647 134.264 21.59V24.46C134.264 25.6638 134.494 26.6968 134.954 27.5592C135.414 28.4126 136.058 29.0683 136.885 29.5265C137.711 29.9756 138.679 30.2002 139.787 30.2002C140.529 30.2002 141.201 30.1014 141.802 29.9038C142.404 29.6972 142.925 29.3962 143.366 29.001C143.808 28.6057 144.141 28.1161 144.367 27.5322L149.13 28.0443C148.829 29.248 148.256 30.299 147.41 31.1973C146.574 32.0866 145.504 32.7783 144.198 33.2724C142.892 33.7575 141.398 34 139.717 34Z" fill="url(#paint1_linear_308_11961)"/>
<path d="M124.89 6V33.5959H119.789V6H124.89Z" fill="url(#paint2_linear_308_11961)"/>
<path d="M114.544 6V33.5959H109.443V6H114.544Z" fill="url(#paint3_linear_308_11961)"/>
<path d="M94.7439 34C92.6303 34 90.7985 33.5554 89.2485 32.666C87.6985 31.7767 86.4961 30.5326 85.6412 28.9336C84.7958 27.3346 84.373 25.4661 84.373 23.3282C84.373 21.1902 84.7958 19.3173 85.6412 17.7093C86.4961 16.1013 87.6985 14.8527 89.2485 13.9634C90.7985 13.0741 92.6303 12.6294 94.7439 12.6294C96.8576 12.6294 98.6894 13.0741 100.239 13.9634C101.789 14.8527 102.987 16.1013 103.833 17.7093C104.687 19.3173 105.115 21.1902 105.115 23.3282C105.115 25.4661 104.687 27.3346 103.833 28.9336C102.987 30.5326 101.789 31.7767 100.239 32.666C98.6894 33.5554 96.8576 34 94.7439 34ZM94.7721 30.0924C95.9182 30.0924 96.8763 29.7915 97.6466 29.1896C98.4169 28.5788 98.99 27.7613 99.3657 26.7372C99.7509 25.7132 99.9435 24.5723 99.9435 23.3147C99.9435 22.0481 99.7509 20.9028 99.3657 19.8787C98.99 18.8457 98.4169 18.0237 97.6466 17.4129C96.8763 16.802 95.9182 16.4966 94.7721 16.4966C93.5979 16.4966 92.6209 16.802 91.8412 17.4129C91.0709 18.0237 90.4932 18.8457 90.108 19.8787C89.7323 20.9028 89.5444 22.0481 89.5444 23.3147C89.5444 24.5723 89.7323 25.7132 90.108 26.7372C90.4932 27.7613 91.0709 28.5788 91.8412 29.1896C92.6209 29.7915 93.5979 30.0924 94.7721 30.0924Z" fill="url(#paint4_linear_308_11961)"/>
<path d="M56 33.5959V6H61.2277V17.6824H74.6V6H79.8418V33.5959H74.6V21.873H61.2277V33.5959H56Z" fill="url(#paint5_linear_308_11961)"/>
<path d="M13.3334 8C13.3334 8.1841 13.1841 8.33333 13 8.33333H8.0787C7.72696 8.33333 7.61502 8.8075 7.92963 8.96481L19.851 14.9255C19.9448 14.9724 20.0553 14.9724 20.1491 14.9255L32.0704 8.96481C32.385 8.80751 32.2731 8.33333 31.9214 8.33333H27C26.8159 8.33333 26.6667 8.1841 26.6667 8V0.333333C26.6667 0.149239 26.8159 0 27 0H39.6667C39.8508 0 40.0001 0.149238 40.0001 0.333333V39.6667C40.0001 39.8508 39.8508 40 39.6667 40H27C26.8159 40 26.6667 39.8508 26.6667 39.6667V32C26.6667 31.8159 26.8159 31.6667 27 31.6667H31.9214C32.2731 31.6667 32.385 31.1925 32.0704 31.0352L20.1491 25.0745C20.0553 25.0276 19.9448 25.0276 19.851 25.0745L7.92963 31.0352C7.61502 31.1925 7.72696 31.6667 8.0787 31.6667H13C13.1841 31.6667 13.3334 31.8159 13.3334 32V39.6667C13.3334 39.8508 13.1841 40 13 40H0.333334C0.149238 40 0 39.8508 0 39.6667V0.333333C0 0.149238 0.149239 0 0.333334 0H13C13.1841 0 13.3334 0.149238 13.3334 0.333333V8Z" fill="url(#paint6_linear_308_11961)"/>
<defs>
<linearGradient id="paint0_linear_308_11961" x1="156.854" y1="15.2272" x2="155.017" y2="34.7391" gradientUnits="userSpaceOnUse">
<stop stop-color="#C9FF33"/>
<stop offset="1" stop-color="#DFFF87"/>
</linearGradient>
<linearGradient id="paint1_linear_308_11961" x1="134.421" y1="15.3007" x2="133.248" y2="35.2704" gradientUnits="userSpaceOnUse">
<stop stop-color="#C9FF33"/>
<stop offset="1" stop-color="#DFFF87"/>
</linearGradient>
<linearGradient id="paint2_linear_308_11961" x1="121.11" y1="9.44948" x2="114.001" y2="33.1971" gradientUnits="userSpaceOnUse">
<stop stop-color="#C9FF33"/>
<stop offset="1" stop-color="#DFFF87"/>
</linearGradient>
<linearGradient id="paint3_linear_308_11961" x1="110.765" y1="9.44948" x2="103.656" y2="33.1971" gradientUnits="userSpaceOnUse">
<stop stop-color="#C9FF33"/>
<stop offset="1" stop-color="#DFFF87"/>
</linearGradient>
<linearGradient id="paint4_linear_308_11961" x1="89.7459" y1="15.3007" x2="88.6072" y2="35.2743" gradientUnits="userSpaceOnUse">
<stop stop-color="#C9FF33"/>
<stop offset="1" stop-color="#DFFF87"/>
</linearGradient>
<linearGradient id="paint5_linear_308_11961" x1="62.1759" y1="9.44948" x2="60.5254" y2="35.2195" gradientUnits="userSpaceOnUse">
<stop stop-color="#C9FF33"/>
<stop offset="1" stop-color="#DFFF87"/>
</linearGradient>
<linearGradient id="paint6_linear_308_11961" x1="10.3615" y1="5" x2="8.29243" y2="42.3922" gradientUnits="userSpaceOnUse">
<stop stop-color="#C9FF33"/>
<stop offset="1" stop-color="#DFFF87"/>
</linearGradient>
</defs>
</svg>
