<svg width="512" height="512" viewBox="0 0 512 512" fill="none" xmlns="http://www.w3.org/2000/svg">
<path d="M170.667 102.4C170.667 104.756 168.756 106.667 166.4 106.667H103.407C98.9049 106.667 97.4721 112.736 101.499 114.75L254.092 191.046C255.293 191.647 256.707 191.647 257.908 191.046L410.501 114.75C414.528 112.736 413.095 106.667 408.593 106.667H345.6C343.244 106.667 341.333 104.756 341.333 102.4V4.26667C341.333 1.91025 343.244 0 345.6 0H507.733C510.09 0 512 1.91025 512 4.26667V507.733C512 510.09 510.09 512 507.733 512H345.6C343.244 512 341.333 510.09 341.333 507.733V409.6C341.333 407.244 343.244 405.333 345.6 405.333H408.593C413.095 405.333 414.528 399.264 410.501 397.25L257.908 320.954C256.707 320.353 255.293 320.353 254.092 320.954L101.499 397.25C97.4722 399.264 98.9049 405.333 103.407 405.333H166.4C168.756 405.333 170.667 407.244 170.667 409.6V507.733C170.667 510.09 168.756 512 166.4 512H4.26666C1.91025 512 0 510.09 0 507.733V4.26666C0 1.91025 1.91025 0 4.26667 0H166.4C168.756 0 170.667 1.91025 170.667 4.26667V102.4Z" fill="url(#paint0_linear_1028_13412)"/>
<defs>
<linearGradient id="paint0_linear_1028_13412" x1="131.084" y1="544" x2="157.568" y2="65.3801" gradientUnits="userSpaceOnUse">
<stop stop-color="#94D82D"/>
<stop offset="1" stop-color="#C9FF33"/>
</linearGradient>
</defs>
</svg>
