<svg width="1007" height="111" viewBox="0 0 1007 111" fill="none" xmlns="http://www.w3.org/2000/svg">
<path d="M548.857 4.19751C513.353 4.19751 494.963 26.0824 494.963 55.5542C494.963 85.1427 513.353 107.145 548.857 107.145C584.477 107.145 602.868 85.1427 602.868 55.5542C602.922 26.0824 584.477 4.19751 548.857 4.19751ZM856.627 4.19751C826.595 4.19751 811.522 16.1614 811.522 37.3474C811.522 54.5627 821.534 62.6726 842.251 64.8885L865.3 67.345C874.088 68.3361 878.105 71.7181 878.105 76.153C878.105 81.1717 872.229 85.6687 858.086 85.6687C841.731 85.6687 835.151 81.5217 834.045 73.176H810.127C811.233 95.7035 825.839 107.203 857.21 107.203C885.844 107.203 901.848 94.5937 901.848 75.6266C901.848 59.112 892.367 49.1919 874.44 47.1497L851.742 44.5822C838.471 43.1239 835.154 39.7952 835.154 35.3004C835.154 30.2817 841.962 25.7906 855.29 25.7906C868.095 25.7906 874.788 30.579 876.01 37.7568H900.401C899.175 17.038 881.887 4.19751 856.627 4.19751ZM299.639 6.53111V69.9125C299.639 98.1565 324.779 106.969 345.846 106.969C366.8 106.969 391.826 98.1565 391.826 69.9125V6.53111H366.916V67.0525H367.033C367.033 79.7761 359.238 84.9083 345.911 84.9083C332.989 84.9083 324.549 79.5425 324.549 67.0525V6.53111H299.639ZM90.634 6.88202L3.50684 61.1513V104.747H4.25982L91.6204 50.2436H136.958C138.357 50.2436 139.637 51.3501 139.637 52.9282C139.637 54.2098 139.056 54.7375 138.359 55.1448L95.4609 80.9371C92.6668 82.629 91.6788 85.9549 91.6788 88.4643L91.6163 104.747H146.152V10.2684C146.152 8.45969 144.757 6.88201 142.662 6.88201L90.634 6.88202ZM226.887 6.88202L189.457 104.753H215.185L221.704 86.4231H263.493L269.896 104.753H296.493L258.602 6.88202L226.887 6.88202ZM403.236 6.88202V28.0657H434.724V104.753H459.576V28.0657H490.947V6.88202L403.236 6.88202ZM616.426 6.88202V104.753H662.062C697.042 104.753 706.699 91.6759 706.699 55.0863C706.699 20.7125 697.449 6.88202 662.062 6.88202H616.426ZM720.613 6.88202V104.753H799.184V83.5631H745.523V65.8243H788.708V44.5822H745.523V28.0657H799.184V6.88202L720.613 6.88202ZM914.536 6.88202L914.653 104.753H939.453V67.5789L973.094 104.753H1004.58L959.18 56.4315L1004.58 6.88202H974.956L939.453 46.6233V6.88202L914.536 6.88202ZM548.857 26.2C567.423 26.2 577.38 37.5783 577.38 55.5542C577.434 73.9373 567.423 85.1423 548.857 85.1423C530.464 85.1423 520.34 73.8775 520.34 55.5542C520.34 37.5783 530.464 26.2 548.857 26.2ZM242.774 27.2528L256.215 65.5904H229.093L242.774 27.2528ZM641.284 28.0657H661.069C676.668 28.0657 681.322 32.3252 681.322 55.0863C681.322 75.8621 676.085 83.5632 661.069 83.5632H641.284V28.0657Z" fill="black"/>
</svg>
