<svg width="1000" height="216" viewBox="0 0 1000 216" fill="none" xmlns="http://www.w3.org/2000/svg">
<g clip-path="url(#clip0_1259_8589)">
<path d="M694.32 141.026C692.6 140.862 691.003 140.207 689.529 138.979C688.054 137.75 687.318 136.235 687.318 134.393V104.664H707.341V88.285H687.318V67.688L668.563 73.052V88.285H656.77V104.664H668.563V134.515C668.563 154.795 682.806 159.166 694.402 159.166C698.661 159.166 703.288 158.47 708.284 157.078V139.367C704.048 140.778 700.381 141.19 697.392 141.19C697.064 141.19 696.039 141.149 694.32 141.026ZM271.895 110.929C275.212 108.759 277.873 105.851 279.839 102.207C281.804 98.604 282.787 94.673 282.787 90.496C282.787 83.494 280.166 77.679 274.925 73.011C269.683 68.343 262.722 66.009 254.082 66.009H211.496V157.734H257.358C266.326 157.734 273.492 155.4 278.774 150.691C284.057 146.023 286.718 140.167 286.718 133.083C286.718 128.456 285.49 124.156 283.033 120.184C280.576 116.212 276.85 113.099 271.895 110.929ZM230.495 83.698H253.427C256.539 83.698 259.118 84.681 261.084 86.687C263.049 88.693 264.032 91.11 264.032 93.894C264.032 96.719 263.049 99.095 261.084 101.101C259.119 103.107 256.539 104.131 253.427 104.131H230.495V83.698ZM263.705 137.136C261.739 139.06 259.2 140.043 256.047 140.043H230.495V119.978H256.047C259.2 119.978 261.739 120.961 263.705 122.926C265.67 124.892 266.653 127.267 266.653 130.051C266.653 132.876 265.67 135.21 263.705 137.135V137.136ZM345.479 124.155C345.479 128.987 344.045 133 341.22 136.276C338.354 139.552 334.627 141.19 330 141.19C326.151 141.19 322.916 139.839 320.254 137.136C317.592 134.433 316.241 130.912 316.241 126.53V88.284H297.241V131.362C297.241 139.675 300.066 146.349 305.758 151.345C311.45 156.382 318.207 158.88 326.069 158.88C333.767 158.88 340.237 156.382 345.479 151.305V157.734H364.479V88.285H345.479V124.155ZM378.648 88.284H397.648V157.733H378.648V88.284ZM388.352 60.234C385.117 60.234 382.333 61.299 380.08 63.51C377.828 65.68 376.681 68.342 376.681 71.495C376.681 74.648 377.828 77.269 380.08 79.439C382.332 81.568 385.117 82.633 388.352 82.633C391.587 82.633 394.33 81.527 396.583 79.357C398.876 77.269 399.982 74.648 399.982 71.495C399.982 68.342 398.877 65.68 396.583 63.51C394.331 61.299 391.587 60.234 388.352 60.234ZM411.529 66.008H430.53V157.733H411.529V66.008ZM493.181 94.181C487.858 89.431 481.47 87.097 474.058 87.097C464.599 87.097 456.532 90.537 449.817 97.457C443.06 104.418 439.703 112.935 439.703 123.009C439.703 132.673 443.102 141.067 449.858 148.151C456.614 155.235 464.681 158.757 474.058 158.757C481.552 158.757 487.94 156.505 493.181 151.96V157.734H512.181V66.009H493.181V94.181ZM488.963 136.03C485.318 139.756 480.937 141.599 475.859 141.599C470.617 141.599 466.236 139.757 462.714 136.112C459.152 132.427 457.391 128.045 457.391 123.008C457.391 117.93 459.152 113.549 462.714 109.823C466.236 106.097 470.617 104.254 475.859 104.254C480.937 104.254 485.318 106.138 488.963 109.905C492.648 113.631 494.49 118.013 494.49 123.009C494.49 127.964 492.648 132.304 488.963 136.031V136.03ZM581.179 95.205C574.586 89.8 567.092 87.097 558.616 87.097C548.829 87.097 540.435 90.537 533.474 97.457C526.39 104.418 522.868 112.935 522.868 123.009C522.868 132.796 526.308 141.19 533.269 148.233C540.231 155.235 548.666 158.757 558.616 158.757C565.25 158.757 571.72 157.119 578.026 153.843C584.291 150.567 588.795 146.226 591.498 140.821L574.996 136.112C570.738 140.043 565.25 142.009 558.617 142.009C554.441 142.009 550.796 140.985 547.766 138.897C544.695 136.85 542.647 133.901 541.583 130.052H593.751C594.243 127.882 594.529 125.629 594.529 123.254C594.529 120.797 594.202 118.258 593.628 115.638C591.867 107.448 587.69 100.61 581.179 95.205ZM541.582 115.638C542.647 112.321 544.653 109.537 547.683 107.285C550.672 104.992 554.276 103.845 558.494 103.845C562.671 103.845 566.274 104.991 569.222 107.285C572.211 109.537 574.218 112.322 575.241 115.638H541.582ZM826.829 95.205C820.277 89.8 812.783 87.097 804.307 87.097C794.52 87.097 786.126 90.537 779.124 97.457C772.081 104.418 768.518 112.935 768.518 123.009C768.518 132.796 771.999 141.19 778.919 148.233C785.881 155.235 794.316 158.757 804.307 158.757C810.941 158.757 817.41 157.119 823.676 153.843C829.982 150.567 834.486 146.226 837.189 140.821L820.687 136.112C816.387 140.043 810.941 142.009 804.308 142.009C800.09 142.009 796.487 140.985 793.416 138.897C790.345 136.85 788.297 133.901 787.274 130.052H839.401C839.933 127.882 840.179 125.629 840.179 123.254C840.179 120.797 839.893 118.258 839.278 115.638C837.517 107.448 833.382 100.61 826.83 95.205H826.829ZM787.272 115.638C788.296 112.321 790.343 109.537 793.332 107.285C796.362 104.992 799.966 103.845 804.183 103.845C808.36 103.845 811.922 104.991 814.912 107.285C817.86 109.537 819.867 112.322 820.931 115.638H787.272ZM909.258 94.631C903.566 89.594 896.809 87.096 888.948 87.096C881.249 87.096 874.82 89.635 869.579 94.672V88.284H850.578V157.733H869.579V121.821C869.579 116.989 870.971 112.976 873.837 109.7C876.663 106.424 880.389 104.786 885.016 104.786C888.865 104.786 892.101 106.137 894.803 108.84C897.465 111.543 898.775 115.105 898.775 119.446V157.733H917.775V114.614C917.775 106.301 914.949 99.627 909.258 94.631ZM981 66.008V94.181C975.676 89.431 969.329 87.097 961.877 87.097C952.459 87.097 944.351 90.537 937.635 97.457C930.92 104.418 927.562 112.935 927.562 123.009C927.562 132.673 930.92 141.067 937.717 148.151C944.474 155.235 952.54 158.757 961.877 158.757C969.411 158.757 975.759 156.505 981 151.96V157.734H1000V66.009L981 66.008ZM976.823 136.03C973.138 139.756 968.797 141.599 963.72 141.599C958.478 141.599 954.097 139.757 950.534 136.112C947.012 132.427 945.252 128.045 945.252 123.008C945.252 117.93 947.013 113.549 950.534 109.823C954.097 106.097 958.478 104.254 963.72 104.254C968.798 104.254 973.138 106.138 976.823 109.905C980.508 113.631 982.31 118.013 982.31 123.009C982.31 127.964 980.508 132.304 976.823 136.031V136.03ZM642.896 87.467C634.424 87.465 628.074 90.864 623.897 97.574L623.9 88.287L604.903 88.282L604.884 157.729L623.881 157.734V122.927C623.884 110.811 634.42 104.666 642.892 104.669C644.824 104.669 646.826 104.881 648.909 105.204L648.914 88.003C646.831 87.68 644.829 87.469 642.897 87.468L642.896 87.467ZM757.68 87.467C749.208 87.465 742.858 90.864 738.681 97.574L738.684 88.287L719.687 88.282L719.668 157.729L738.665 157.734V122.927C738.668 110.811 749.204 104.666 757.676 104.669C759.608 104.669 761.61 104.881 763.693 105.204L763.698 88.003C761.615 87.68 759.613 87.469 757.681 87.468L757.68 87.467ZM71.889 40.649H35.219V0.312012H0V111.763C0.002 151.035 31.839 182.872 71.111 182.872C110.383 182.872 142.222 151.034 142.222 111.76C142.222 72.747 110.802 41.067 71.888 40.648L71.889 40.649ZM71.112 147.545C51.348 147.545 35.327 131.523 35.327 111.76C35.327 91.997 51.348 75.975 71.112 75.975C90.876 75.975 106.897 91.996 106.897 111.76C106.897 131.524 90.875 147.545 71.112 147.545Z" fill="white"/>
<path d="M121.846 21.3579L114.694 33.7459C142.065 49.0449 160.575 78.3019 160.575 111.887C160.575 161.296 120.521 201.35 71.1121 201.35C54.3391 201.35 38.6481 196.73 25.2321 188.7L18.0811 201.085C33.6111 210.353 51.7491 215.688 71.1121 215.688C128.348 215.688 174.913 169.123 174.913 111.887C174.913 73.0669 153.489 39.1619 121.846 21.3579Z" fill="#00D8D8"/>
</g>
<defs>
<clipPath id="clip0_1259_8589">
<rect width="1000" height="216" fill="white"/>
</clipPath>
</defs>
</svg>
