<svg width="1000" height="257" viewBox="0 0 1000 257" fill="none" xmlns="http://www.w3.org/2000/svg">
<g clip-path="url(#clip0_1258_8391)">
<path d="M700.868 202.736V90.8311H682.154V64.3601H735.434V202.736H700.868ZM718.492 10.7426C723.97 10.7426 728.64 12.5709 732.507 16.2277C736.375 19.8844 738.316 24.2975 738.316 29.4595C738.316 34.6289 736.375 39.0493 732.507 42.706C728.64 46.3628 723.97 48.1985 718.492 48.1985C713.029 48.1985 708.367 46.3628 704.485 42.706C700.617 39.0493 698.676 34.6289 698.676 29.4595C698.676 24.2975 700.617 19.8844 704.485 16.2277C708.353 12.5562 713.029 10.7426 718.492 10.7426ZM849.279 37.2136C841.801 34.8932 836.066 33.733 832.066 33.733C825.588 33.733 820.095 36.3618 815.595 41.6119C811.095 46.8621 808.823 53.3238 808.823 60.9971C808.823 62.0985 808.897 63.2293 808.963 64.3601H839.301V90.9706H809.522V202.736H775.36V90.9706H754.037V64.3601H775.5C776.22 47.3834 781.537 33.689 791.419 23.2548C801.301 12.8353 814.088 7.6145 829.75 7.6145C837.853 7.6145 847.735 9.30336 859.382 12.659L849.279 37.2136ZM935.919 224.963C932.257 234.178 924.448 241.837 912.485 247.895C900.485 253.975 886.537 257 870.603 257V228.458C896.934 228.458 910.088 222.209 910.088 209.712C910.088 201.451 906.448 188.785 899.169 171.727L853.382 64.3674H888.772L928.684 159.979L964.61 64.3674H1000L935.919 224.963Z" fill="#A2A2A2"/>
<path d="M364.971 36.8758L364.78 7.84219C364.775 5.80251 365.568 3.84157 366.989 2.37685C368.411 0.912125 370.349 0.0593272 372.39 1.73393e-05C373.389 -0.0383378 374.385 0.123838 375.32 0.476941C376.255 0.830044 377.109 1.36689 377.833 2.0557C378.556 2.7445 379.134 3.57126 379.531 4.487C379.929 5.40274 380.138 6.38885 380.148 7.38693L380.324 36.4426C380.327 37.5901 380.077 38.7241 379.591 39.764C379.105 40.8038 378.396 41.7239 377.513 42.4587C376.631 43.1935 375.597 43.725 374.485 44.0152C373.373 44.3055 372.211 44.3474 371.081 44.1379C369.373 43.8311 367.826 42.9369 366.709 41.6106C365.591 40.2842 364.974 38.6091 364.964 36.8758H364.971ZM394.552 46.0691C393.621 45.7035 392.773 45.1561 392.056 44.4591C391.34 43.7622 390.77 42.9295 390.38 42.0099C389.99 41.0902 389.787 40.1021 389.784 39.1033C389.78 38.1045 389.977 37.1151 390.361 36.193L399.258 17.9239C400.042 16.0433 401.527 14.5403 403.399 13.7321C405.272 12.9238 407.386 12.8735 409.295 13.5916C413.236 15.1336 415.103 19.5614 413.486 23.4678L404.618 41.7515C403.827 43.6346 402.334 45.1373 400.455 45.9427C398.576 46.7482 396.464 46.7935 394.552 46.0691ZM414.662 56.3418C413.958 55.6276 413.404 54.7806 413.031 53.8502C412.658 52.9198 412.474 51.9245 412.491 50.9225C412.507 49.9205 412.723 48.9318 413.126 48.014C413.53 47.0963 414.112 46.2679 414.839 45.5771L432.53 29.276C433.971 27.8416 435.918 27.0289 437.953 27.0125C439.988 26.996 441.948 27.777 443.412 29.1879C446.375 32.1177 446.339 36.9272 443.258 39.9084L437.648 44.9089L425.574 56.2316C424.618 57.1676 423.441 57.8479 422.152 58.2098C420.863 58.5717 419.503 58.6035 418.199 58.3023C416.868 57.9751 415.642 57.2982 414.662 56.3418ZM349.824 46.0691C353.758 44.5271 355.611 40.1214 354.015 36.2003L345.118 17.9313C344.334 16.0506 342.849 14.5477 340.976 13.7394C339.104 12.9312 336.99 12.8808 335.081 13.599C334.147 13.9614 333.295 14.507 332.576 15.2038C331.856 15.9005 331.284 16.7342 330.893 17.6555C330.501 18.5769 330.299 19.5672 330.297 20.568C330.295 21.5688 330.494 22.5598 330.883 23.4825L339.765 41.7662C340.556 43.6439 342.046 45.1421 343.92 45.946C345.795 46.7498 347.908 46.7965 349.817 46.0764L349.824 46.0691ZM329.706 56.3418C332.677 53.4046 332.596 48.573 329.545 45.5771L311.861 29.276C310.419 27.8416 308.472 27.0289 306.438 27.0125C304.403 26.996 302.443 27.777 300.978 29.1879C298 32.1177 298.045 36.9272 301.125 39.9084L306.728 44.9089L318.809 56.2316C320.831 58.1995 323.64 58.9044 326.177 58.3023C327.471 57.9866 328.706 57.3257 329.706 56.3418Z" fill="#FF7900"/>
<path d="M91.6029 199.601L49.4853 138.149L33.4412 154.259V199.608H0V13.364L33.4265 5.77148V115.988L81.1765 63.9269H121.426L73.0147 115.356L131.324 199.601H91.6029ZM242.199 199.601V121.187C242.199 109.622 239.853 101.177 235.169 95.8537C230.485 90.5301 222.853 87.8646 212.235 87.8646C207.324 87.8646 202.088 89.1863 196.522 91.8004C190.941 94.4071 186.603 97.6673 183.478 101.544V199.601H150.044V63.9196H174.118L180.272 76.5933C189.368 66.4602 202.779 61.3936 220.522 61.3936C237.551 61.3936 250.985 66.2326 260.853 75.8884C270.699 85.559 275.632 99.0478 275.632 116.377V199.608L242.199 199.601Z" fill="#4D4D4F"/>
<path d="M302.375 131.452C302.375 110.752 308.676 93.9077 321.294 80.8962C333.912 67.8847 350.559 61.3862 371.243 61.3862C392.993 61.3862 409.897 67.6423 421.926 80.1325C433.963 92.6374 439.985 109.724 439.985 131.444C439.985 153.069 433.846 170.251 421.588 183.006C409.331 195.761 392.544 202.127 371.235 202.127C349.471 202.127 332.559 195.694 320.478 182.822C308.419 169.936 302.375 152.827 302.375 131.452ZM337.154 131.452C337.154 161.337 348.522 176.287 371.25 176.287C381.691 176.287 389.956 172.418 396.059 164.641C402.162 156.88 405.228 145.807 405.228 131.452C405.228 101.97 393.89 87.2331 371.25 87.2331C360.824 87.2331 352.537 91.1175 346.382 98.8789C340.228 106.662 337.154 117.508 337.154 131.452Z" fill="#FF7900"/>
<path d="M607.426 202.134H595.265L555.948 118.793L516.757 202.134H504.448L450.419 63.9196H485.595L514.345 144.867L549.382 63.9196H561.412L597.662 145.381L628.691 63.9196H661.588L607.426 202.134Z" fill="#4D4D4F"/>
</g>
<defs>
<clipPath id="clip0_1258_8391">
<rect width="1000" height="257" fill="white"/>
</clipPath>
</defs>
</svg>
