<svg width="946" height="118" viewBox="0 0 946 118" fill="none" xmlns="http://www.w3.org/2000/svg">
<g clip-path="url(#clip0_1259_8556)">
<path d="M96.5407 75.8053H30.0349V118.424H0V0H96.5407C111.996 0 122.854 10.8293 122.854 26.2437V49.6053C122.854 64.976 111.996 75.8053 96.5407 75.8053ZM30.0349 22.139V53.6227H84.6756C89.2727 53.6227 92.2937 50.566 92.2937 46.0247V29.7807C92.2937 25.1957 89.229 22.1827 84.6756 22.1827H30.0349V22.139ZM237.958 75.456L262.564 118.424H230.165L205.734 75.8053H167.206V118.424H137.171V0H233.712C249.167 0 260.025 10.8293 260.025 26.2437V49.6053C260.025 63.4913 251.049 73.7967 237.958 75.4997V75.456ZM167.206 22.139V53.6227H221.846C226.444 53.6227 229.465 50.566 229.465 46.0247V29.7807C229.465 25.1957 226.4 22.1827 221.846 22.1827H167.206V22.139ZM298.072 0H373.378C387.301 0 397.152 9.825 397.152 23.711V94.7567C397.152 108.643 387.301 118.424 373.378 118.424H298.072C284.149 118.424 274.342 108.599 274.342 94.7567V23.711C274.342 9.825 284.193 0 298.072 0ZM292.643 59.212L314.534 96.7653H356.96L378.851 59.212L356.96 21.6587H314.534L292.643 59.212ZM435.199 118.424C421.276 118.424 411.469 108.599 411.469 94.7567V23.711C411.469 9.825 421.32 0 435.199 0H510.505C524.428 0 534.279 9.825 534.279 23.711V47.2473H509.673L494.919 21.7023H451.661L429.77 59.2557L451.661 96.809H494.919L509.673 71.264H534.279V94.8003C534.279 108.686 524.428 118.468 510.505 118.468H435.199V118.424ZM572.37 0H647.676C661.599 0 671.45 9.825 671.45 23.711V94.7567C671.45 108.643 661.599 118.424 647.676 118.424H572.37C558.447 118.424 548.64 108.599 548.64 94.7567V23.711C548.64 9.825 558.491 0 572.37 0ZM566.941 59.212L588.832 96.7653H631.258L653.149 59.212L631.258 21.6587H588.832L566.941 59.212ZM786.555 75.456L811.16 118.424H778.761L754.331 75.8053H715.802V118.424H685.767V0H782.308C797.763 0 808.621 10.8293 808.621 26.2437V49.6053C808.621 63.4913 799.646 73.7967 786.555 75.4997V75.456ZM715.802 22.139V53.6227H770.443C775.04 53.6227 778.061 50.566 778.061 46.0247V29.7807C778.061 25.1957 774.996 22.1827 770.443 22.1827H715.802V22.139ZM852.929 70.216V96.285H945.748V118.468H822.938V0H945.748V22.1827H852.929V48.077H917.727V70.2597H852.929V70.216Z" fill="white"/>
<path d="M484.761 39.2563L496.451 59.212L484.761 79.1677H461.688L449.954 59.212L461.688 39.2563H484.761Z" fill="#FF5200"/>
</g>
<defs>
<clipPath id="clip0_1259_8556">
<rect width="946" height="118" fill="white"/>
</clipPath>
</defs>
</svg>
