<svg width="1000" height="256" viewBox="0 0 1000 256" fill="none" xmlns="http://www.w3.org/2000/svg">
<g clip-path="url(#clip0_1258_8403)">
<path d="M114.111 228.322C177.118 228.322 228.222 177.197 228.222 114.161C228.222 51.1258 177.118 0 114.111 0C51.1033 0 0 51.1258 0 114.161C0 177.197 51.0662 228.322 114.111 228.322Z" fill="#2CA01C"/>
<path d="M76.0618 69.7508C51.5485 69.7508 31.6709 89.6372 31.6709 114.161C31.6709 138.685 51.5114 158.535 76.0618 158.535H82.4033V142.062H76.0618C60.6715 142.062 48.1738 129.558 48.1738 114.161C48.1738 98.7642 60.6715 86.261 76.0618 86.261H91.3038V172.522C91.3038 181.612 98.6837 188.995 107.77 188.995V69.7508H76.0618ZM152.16 158.535C176.674 158.535 196.551 138.648 196.551 114.161C196.551 89.6743 176.711 69.7879 152.16 69.7879H145.819V86.261H152.16C167.551 86.261 180.048 98.7642 180.048 114.161C180.048 129.558 167.551 142.062 152.16 142.062H136.918V55.8007C136.918 46.7108 129.539 39.3276 120.453 39.3276V158.535H152.16Z" fill="white"/>
<path d="M336.547 256H318.894V211.293H318.598C314.036 218.342 305.062 222.757 295.197 222.757C273.725 222.757 260.485 205.69 260.485 185.099C260.485 164.508 274.615 147.998 294.752 147.998C307.695 147.998 315.631 154.305 319.154 159.907H319.599V150.038H336.51V256H336.547ZM298.757 208.028C311.7 208.028 319.488 196.415 319.488 185.359C319.488 174.303 311.7 162.393 298.757 162.393C285.11 162.393 278.472 174.006 278.472 185.062C278.472 196.081 285.073 208.028 298.757 208.028ZM415.761 220.679H398.998V209.326H398.702C395.624 216.376 387.242 222.72 376.784 222.72C358.39 222.72 350.751 208.584 350.751 194.189V150.038H368.403V189.18C368.403 197.565 370.294 207.991 381.642 207.991C392.99 207.991 398.108 198.27 398.108 188.883V150.038H415.761V220.642V220.679ZM433.487 148.517H451.14V219.158H433.487V148.517ZM517.114 169.628C514.333 165.658 508.288 162.69 502.54 162.69C489.597 162.69 483.107 174.303 483.107 185.359C483.107 196.415 489.746 208.028 503.096 208.028C508.548 208.028 514.555 205.802 517.967 201.721L528.982 212.888C523.085 219.195 513.369 222.757 502.948 222.757C482.069 222.757 464.713 208.918 464.713 185.396C464.713 161.874 481.772 148.035 502.503 148.035C512.812 148.035 523.53 152.153 529.13 159.054L517.077 169.628H517.114ZM537.882 109.449H555.535V179.756H555.98L582.755 150.038H605.414L574.819 181.983L607.342 220.679H583.979L556.017 184.468H555.572V220.679H537.919V109.486L537.882 109.449ZM633.005 109.449V159.054H633.45C637.122 154.49 644.168 148.035 657.148 148.035C677.285 148.035 691.414 164.211 691.414 185.136C691.414 206.061 678.175 222.794 656.703 222.794C646.838 222.794 637.27 218.231 632.449 210.143H632.152V220.754H615.39V109.486H633.042L633.005 109.449ZM653.142 162.43C640.2 162.43 632.412 174.34 632.412 185.396C632.412 196.452 640.2 208.065 653.142 208.065C666.827 208.065 673.428 196.155 673.428 185.099C673.428 174.043 666.827 162.43 653.142 162.43ZM737.4 147.998C758.724 147.998 775.783 162.875 775.783 185.099C775.783 207.323 758.724 222.757 737.4 222.757C716.076 222.757 699.017 207.323 699.017 185.099C699.017 162.875 716.076 147.998 737.4 147.998ZM737.4 208.028C751.381 208.028 757.834 196.118 757.834 185.062C757.834 174.006 751.381 162.393 737.4 162.393C723.419 162.393 716.966 174.006 716.966 185.062C716.966 196.118 723.419 208.028 737.4 208.028ZM821.88 147.998C843.204 147.998 860.263 162.875 860.263 185.099C860.263 207.323 843.204 222.757 821.88 222.757C800.556 222.757 783.497 207.323 783.497 185.099C783.497 162.875 800.556 147.998 821.88 147.998ZM821.88 208.028C835.861 208.028 842.314 196.118 842.314 185.062C842.314 174.006 835.861 162.393 821.88 162.393C807.899 162.393 801.446 174.006 801.446 185.062C801.446 196.081 807.899 208.028 821.88 208.028ZM870.943 109.449H888.596V179.756H889.041L915.816 150.038H938.438L907.88 181.983L940.367 220.679H917.003L889.041 184.468H888.596V220.679H870.943V109.486V109.449ZM988.54 168.886C985.462 164.767 979.566 161.243 973.113 161.243C967.55 161.243 961.765 163.321 961.765 168.923C961.765 174.525 967.216 175.861 977.044 178.198C987.502 180.721 999.851 185.396 999.851 199.235C999.851 216.45 985.87 222.794 970.443 222.794C959.577 222.794 948.229 218.676 941.442 211.181L953.05 200.311C956.87 205.319 963.508 209.141 971.147 209.141C976.302 209.141 982.495 207.063 982.495 200.756C982.495 194.857 977.044 193.113 966.326 190.59C955.868 188.067 945.447 183.838 945.447 170.592C945.447 154.824 959.577 148.109 973.558 148.109C983.682 148.109 994.288 151.634 1000.04 158.831L988.614 168.997L988.54 168.886ZM453.847 53.6486C453.847 71.5686 468.162 84.6283 486.371 84.6283C504.58 84.6283 518.931 71.5686 518.931 53.6486V12.5402H501.279V51.571C501.279 61.2173 494.826 67.7101 486.334 67.7101C477.841 67.7101 471.351 61.2544 471.351 51.571V12.5402H453.736L453.847 53.6486ZM566.104 29.0504H587.168V83.2185H604.784V29.0504H625.811V12.5402H566.104V29.0504ZM554.682 12.5402H537.066V83.2556H554.682V12.5402ZM382.681 29.0504H403.745V83.2185H421.361V29.0504H442.388V12.5402H382.718V29.0504H382.681ZM290.191 12.5402H272.575V83.2556H290.191V12.5402ZM373.41 42.1101C373.41 24.1901 359.058 11.1304 340.849 11.1304C322.64 11.1304 308.288 24.1901 308.288 42.1101V83.2185H325.903V44.1878C325.903 34.5414 332.356 28.0486 340.849 28.0486C349.341 28.0486 355.794 34.5043 355.794 44.1878V83.2185H373.41V42.1101Z" fill="black"/>
</g>
<defs>
<clipPath id="clip0_1258_8403">
<rect width="1000" height="256" fill="white"/>
</clipPath>
</defs>
</svg>
