<svg width="1007" height="568" viewBox="0 0 1007 568" fill="none" xmlns="http://www.w3.org/2000/svg">
<g clip-path="url(#clip0_1258_8407)">
<path d="M111.281 0C174.284 0 225.513 43.5753 226.693 104.224C227.283 121.297 214.918 130.725 201.374 130.725C188.419 130.725 177.234 121.31 176.645 105.404C176.055 71.2437 147.208 45.9222 110.691 45.9222C76.5344 45.9222 50.6384 70.0638 50.6384 103.043C50.6384 138.96 74.7778 154.867 124.826 173.12C178.402 192.554 227.283 215.515 227.283 283.822C227.283 343.303 180.762 390.995 116.002 390.995C52.4087 390.995 0 346.24 0 285.592C0 247.905 18.2519 221.403 35.9137 221.403C51.2285 221.403 60.6427 231.408 60.6427 244.954C60.6427 256.73 50.6384 262.028 50.6384 283.231C50.6384 320.919 81.2548 345.06 116.002 345.06C152.505 345.06 176.645 319.738 176.645 289.119C176.645 251.432 152.505 235.539 102.457 217.862C46.5214 197.865 0 173.71 0 107.174C0 47.1158 48.2784 0 111.281 0Z" fill="#00D639"/>
<path d="M368.25 391.008C304.657 391.008 251.672 339.775 251.672 274.996C251.672 207.87 305.247 157.817 370.021 157.817C439.5 157.817 488.367 209.64 488.367 280.307V366.277C488.367 381.003 476.593 391.008 463.051 391.008C448.917 391.008 437.139 381.003 437.139 366.277V282.064C437.139 235.538 410.643 203.739 368.84 203.739C331.747 203.739 302.31 234.948 302.31 274.996C302.31 312.093 331.156 343.893 367.673 343.893C381.218 343.893 387.105 340.365 395.353 340.365C406.538 340.365 418.312 349.781 418.312 363.326C418.3 381.58 396.507 391.008 368.25 391.008Z" fill="#00D639"/>
<path d="M633.451 566.489C567.501 566.489 512.744 519.374 512.744 458.134C512.744 437.521 524.518 428.107 538.064 428.107C551.606 428.107 562.792 436.945 563.384 454.017C563.972 492.295 594.589 520.554 632.863 520.554C673.498 520.554 699.982 494.643 699.982 461.071C699.982 422.794 670.545 406.902 620.497 390.995C562.204 372.151 512.744 346.24 512.744 274.406C512.744 208.446 563.384 157.817 629.323 157.817C695.853 157.817 750.622 206.099 750.622 269.698C750.622 308.565 734.731 338.595 712.936 338.595C698.213 338.595 688.208 328 688.208 315.043C688.208 301.498 699.982 295.61 699.982 271.469C699.982 230.831 668.185 203.752 629.911 203.752C592.817 203.752 563.384 232.024 563.384 269.121C563.384 310.926 593.409 328.603 642.869 345.086C699.982 363.929 750.622 387.481 750.622 456.378C750.622 518.205 701.754 566.489 633.451 566.489Z" fill="#00D639"/>
<path d="M895.131 391.009C829.176 391.009 775.012 339.185 775.012 274.42C775.012 209.64 827.42 157.83 892.178 157.83C957.545 157.83 1007 203.176 1007 260.887C1007 283.258 991.11 296.804 965.202 296.804H897.491C883.945 296.804 873.939 287.388 873.939 275.01C873.939 263.234 883.945 253.806 897.491 253.806H948.127C952.836 253.806 956.376 251.445 956.376 246.738C956.376 229.664 934.585 203.162 893.963 203.162C856.281 203.162 825.664 235.552 825.664 274.42C825.664 313.877 856.869 345.087 895.731 345.087C940.486 345.087 955.208 318.585 973.459 318.585C988.774 318.585 997.011 328.59 997.011 339.789C997.011 350.384 989.942 359.813 972.279 370.998C954.592 382.171 928.108 391.009 895.131 391.009Z" fill="#00D639"/>
</g>
<defs>
<clipPath id="clip0_1258_8407">
<rect width="1007" height="568" fill="white"/>
</clipPath>
</defs>
</svg>
